<mxfile host="app.diagrams.net" modified="2023-11-30T18:08:51.713Z" agent="Mozilla/5.0 (Windows NT 10.0; Win64; x64) AppleWebKit/537.36 (KHTML, like Gecko) Chrome/119.0.0.0 Safari/537.36" etag="AnARA_nCysCK9u9RkjBe" version="22.1.5" type="device">
  <diagram name="Page-1" id="nEheurg66xgc4SHSqx3Y">
    <mxGraphModel dx="1390" dy="928" grid="0" gridSize="10" guides="1" tooltips="1" connect="1" arrows="1" fold="1" page="0" pageScale="1" pageWidth="850" pageHeight="1100" math="0" shadow="0">
      <root>
        <mxCell id="0" />
        <mxCell id="1" parent="0" />
        <mxCell id="eeU33FM0Kh04eqpYGu_y-1" value="" style="ellipse;whiteSpace=wrap;html=1;fontSize=16;" vertex="1" parent="1">
          <mxGeometry x="-81" y="101" width="84" height="73" as="geometry" />
        </mxCell>
        <mxCell id="eeU33FM0Kh04eqpYGu_y-5" value="Assign Task" style="ellipse;whiteSpace=wrap;html=1;fontSize=16;" vertex="1" parent="1">
          <mxGeometry x="118" y="-153" width="150" height="80" as="geometry" />
        </mxCell>
        <mxCell id="eeU33FM0Kh04eqpYGu_y-6" value="Client" style="text;html=1;align=center;verticalAlign=middle;resizable=0;points=[];autosize=1;strokeColor=none;fillColor=none;fontSize=16;" vertex="1" parent="1">
          <mxGeometry x="-73" y="46" width="59" height="31" as="geometry" />
        </mxCell>
        <mxCell id="eeU33FM0Kh04eqpYGu_y-13" value="Assign Task" style="ellipse;whiteSpace=wrap;html=1;fontSize=16;" vertex="1" parent="1">
          <mxGeometry x="254" y="-105" width="150" height="80" as="geometry" />
        </mxCell>
      </root>
    </mxGraphModel>
  </diagram>
</mxfile>
